<svg xmlns="http://www.w3.org/2000/svg" style="display:none"><symbol id="close" viewbox="0 0 25 25"><title>cancel</title><path d="M16.096 12.9a.552.552 0 0 1 0-.8l8.562-8.561c.228-.228.342-.571.342-.8 0-.228-.114-.57-.342-.798L23.059.342A1.233 1.233 0 0 0 22.26 0c-.342 0-.57.114-.799.342L12.9 8.904a.552.552 0 0 1-.8 0L3.54.342A1.233 1.233 0 0 0 2.74 0c-.228 0-.57.114-.798.342l-1.6 1.599A1.23 1.23 0 0 0 0 2.74c0 .228.114.57.342.799L8.904 12.1a.552.552 0 0 1 0 .8L.342 21.46a1.234 1.234 0 0 0-.342.8c0 .228.114.57.342.798l1.599 1.599c.228.228.57.342.799.342.228 0 .57-.114.799-.342l8.561-8.562a.552.552 0 0 1 .8 0l8.561 8.562c.228.228.571.342.8.342.228 0 .57-.114.798-.342l1.599-1.599c.228-.228.342-.57.342-.799 0-.228-.114-.57-.342-.799l-8.562-8.56z" fill-rule="evenodd"/></symbol></svg>